<svg xmlns="http://www.w3.org/2000/svg" width="108" height="108" fill="none"><path fill="url(#a)" fill-rule="evenodd" d="M38.92 27.189A34.965 34.965 0 0 1 42.553 27c16.405 0 30.233 11.44 34.468 27.047.339-.022.68-.036 1.023-.043-.14-.002-.28-.004-.42-.004h-.112 5.379v-.002c6.43-.108 11.609-5.354 11.609-11.81 0-6.524-5.289-11.813-11.813-11.813-2.19 0-4.241.596-6 1.635a18.555 18.555 0 0 0-.82-5.419C73.239 18.972 66.005 13.5 57.492 13.5c-8.733 0-16.12 5.76-18.571 13.689ZM91.72 58.407c5.77 4.287 9.529 11.297 9.529 19.218 0 13.048-10.2 23.625-22.784 23.625-.281 0-.562-.005-.841-.016v.016H43.089v-.004a31.87 31.87 0 0 1-.536.004C22.78 101.25 6.75 84.629 6.75 64.125c0-16.557 10.452-30.582 24.888-35.368 2-12.476 12.814-22.007 25.854-22.007 11.187 0 20.736 7.016 24.486 16.888.236-.009.472-.013.71-.013 10.251 0 18.562 8.31 18.562 18.563 0 6.972-3.844 13.046-9.529 16.22ZM77.625 94.5H42.553C26.736 94.5 13.5 81.133 13.5 64.125S26.736 33.75 42.553 33.75c13.418 0 24.978 9.619 28.176 22.92l.01-.004c.452 1.846.74 3.759.848 5.723a15.324 15.324 0 0 1 6.88-1.639c8.626 0 16.033 7.322 16.033 16.875 0 9.486-7.304 16.772-15.853 16.874v.001h-1.022Z" clip-rule="evenodd"/><defs><linearGradient id="a" x1="54" x2="54" y1="6.75" y2="101.25" gradientUnits="userSpaceOnUse"><stop stop-color="#B2D4F7"/><stop offset="1" stop-color="#D9E2F3"/></linearGradient></defs></svg>