<svg xmlns="http://www.w3.org/2000/svg" width="108" height="108" fill="none"><path fill="url(#a)" fill-rule="evenodd" d="M94.5 57.74c0 7.67-4.99 14.107-11.813 16.275V81c10.615-2.336 18.563-11.863 18.563-23.26 0-13.149-10.578-23.808-23.625-23.808-.67 0-1.332.028-1.988.083-4.841-13.913-17.99-23.89-33.45-23.89-19.571 0-35.437 15.989-35.437 35.712 0 14.905 9.062 27.678 21.938 33.028v-7.47A28.98 28.98 0 0 1 13.5 45.837c0-16.045 12.893-28.962 28.688-28.962 12.228 0 22.718 7.744 26.83 18.686l.029-.01a29.476 29.476 0 0 1 1.608 6.651 16.664 16.664 0 0 1 6.97-1.52c9.27 0 16.875 7.588 16.875 17.058Zm-16.875 3.01h-33.75v6.75h33.75v-6.75Zm-6.75 13.5h-33.75V81h33.75v-6.75Zm-27 13.5h33.75v6.75h-33.75v-6.75Z" clip-rule="evenodd"/><defs><linearGradient id="a" x1="54" x2="54" y1="10.125" y2="94.5" gradientUnits="userSpaceOnUse"><stop stop-color="#CED3EA"/><stop offset="1" stop-color="#7E83A9"/></linearGradient></defs></svg>