<svg xmlns="http://www.w3.org/2000/svg" width="259" height="172" fill="none"><g filter="url(#a)"><path fill="#00BCFF" d="M98.487 92.752c-5.313 6.97-12.752 20.91 0 20.91 12.753 0 5.314-13.94 0-20.91Z"/></g><g filter="url(#b)"><path fill="#00BCFF" d="M128.36 102.994c-5.314 6.97-12.753 20.91 0 20.91s5.313-13.94 0-20.91Z"/></g><g filter="url(#c)"><path fill="#00BCFF" d="M156.099 92.752c-5.314 6.97-12.753 20.91 0 20.91 12.752 0 5.313-13.94 0-20.91Z"/></g><g filter="url(#d)"><rect width="102.42" height="14.936" x="78.217" y="78.669" fill="#00BCFF" rx="7.468"/></g><g filter="url(#e)"><path fill="url(#f)" d="M180.529 41.545c.342-1.943.521-3.943.521-5.983C181.05 16.474 165.431 1 146.165 1c-14.322 0-26.629 8.552-32.002 20.783a24.792 24.792 0 0 0-16.171-5.97c-13.762 0-24.918 11.175-24.918 24.96 0 .768.035 1.528.103 2.278C66.557 46.263 62 53.003 62 60.798c0 10.907 8.925 19.75 19.934 19.75h94.132c11.009 0 19.934-8.843 19.934-19.75 0-9.388-6.611-17.245-15.471-19.253Z"/></g><defs><filter id="a" width="52.083" height="59.911" x="72.446" y="92.752" color-interpolation-filters="sRGB" filterUnits="userSpaceOnUse"><feFlood flood-opacity="0" result="BackgroundImageFix"/><feColorMatrix in="SourceAlpha" result="hardAlpha" values="0 0 0 0 0 0 0 0 0 0 0 0 0 0 0 0 0 0 127 0"/><feOffset dy="20"/><feGaussianBlur stdDeviation="9.5"/><feComposite in2="hardAlpha" operator="out"/><feColorMatrix values="0 0 0 0 0.283785 0 0 0 0 0.178889 0 0 0 0 0.933333 0 0 0 1 0"/><feBlend in2="BackgroundImageFix" result="effect1_dropShadow_27_271"/><feBlend in="SourceGraphic" in2="effect1_dropShadow_27_271" result="shape"/><feColorMatrix in="SourceAlpha" result="hardAlpha" values="0 0 0 0 0 0 0 0 0 0 0 0 0 0 0 0 0 0 127 0"/><feOffset dy="9"/><feGaussianBlur stdDeviation="1.5"/><feComposite in2="hardAlpha" k2="-1" k3="1" operator="arithmetic"/><feColorMatrix values="0 0 0 0 1 0 0 0 0 1 0 0 0 0 1 0 0 0 0.21 0"/><feBlend in2="shape" result="effect2_innerShadow_27_271"/></filter><filter id="b" width="52.083" height="59.911" x="102.318" y="102.994" color-interpolation-filters="sRGB" filterUnits="userSpaceOnUse"><feFlood flood-opacity="0" result="BackgroundImageFix"/><feColorMatrix in="SourceAlpha" result="hardAlpha" values="0 0 0 0 0 0 0 0 0 0 0 0 0 0 0 0 0 0 127 0"/><feOffset dy="20"/><feGaussianBlur stdDeviation="9.5"/><feComposite in2="hardAlpha" operator="out"/><feColorMatrix values="0 0 0 0 0.283785 0 0 0 0 0.178889 0 0 0 0 0.933333 0 0 0 1 0"/><feBlend in2="BackgroundImageFix" result="effect1_dropShadow_27_271"/><feBlend in="SourceGraphic" in2="effect1_dropShadow_27_271" result="shape"/><feColorMatrix in="SourceAlpha" result="hardAlpha" values="0 0 0 0 0 0 0 0 0 0 0 0 0 0 0 0 0 0 127 0"/><feOffset dy="9"/><feGaussianBlur stdDeviation="1.5"/><feComposite in2="hardAlpha" k2="-1" k3="1" operator="arithmetic"/><feColorMatrix values="0 0 0 0 1 0 0 0 0 1 0 0 0 0 1 0 0 0 0.21 0"/><feBlend in2="shape" result="effect2_innerShadow_27_271"/></filter><filter id="c" width="52.083" height="59.911" x="130.057" y="92.752" color-interpolation-filters="sRGB" filterUnits="userSpaceOnUse"><feFlood flood-opacity="0" result="BackgroundImageFix"/><feColorMatrix in="SourceAlpha" result="hardAlpha" values="0 0 0 0 0 0 0 0 0 0 0 0 0 0 0 0 0 0 127 0"/><feOffset dy="20"/><feGaussianBlur stdDeviation="9.5"/><feComposite in2="hardAlpha" operator="out"/><feColorMatrix values="0 0 0 0 0.283785 0 0 0 0 0.178889 0 0 0 0 0.933333 0 0 0 1 0"/><feBlend in2="BackgroundImageFix" result="effect1_dropShadow_27_271"/><feBlend in="SourceGraphic" in2="effect1_dropShadow_27_271" result="shape"/><feColorMatrix in="SourceAlpha" result="hardAlpha" values="0 0 0 0 0 0 0 0 0 0 0 0 0 0 0 0 0 0 127 0"/><feOffset dy="9"/><feGaussianBlur stdDeviation="1.5"/><feComposite in2="hardAlpha" k2="-1" k3="1" operator="arithmetic"/><feColorMatrix values="0 0 0 0 1 0 0 0 0 1 0 0 0 0 1 0 0 0 0.21 0"/><feBlend in2="shape" result="effect2_innerShadow_27_271"/></filter><filter id="d" width="258.42" height="170.936" x=".217" y=".669" color-interpolation-filters="sRGB" filterUnits="userSpaceOnUse"><feFlood flood-opacity="0" result="BackgroundImageFix"/><feBlend in="SourceGraphic" in2="BackgroundImageFix" result="shape"/><feGaussianBlur result="effect1_foregroundBlur_27_271" stdDeviation="39"/></filter><filter id="e" width="134" height="89.548" x="62" y="1" color-interpolation-filters="sRGB" filterUnits="userSpaceOnUse"><feFlood flood-opacity="0" result="BackgroundImageFix"/><feBlend in="SourceGraphic" in2="BackgroundImageFix" result="shape"/><feColorMatrix in="SourceAlpha" result="hardAlpha" values="0 0 0 0 0 0 0 0 0 0 0 0 0 0 0 0 0 0 127 0"/><feOffset dy="11"/><feGaussianBlur stdDeviation="5"/><feComposite in2="hardAlpha" k2="-1" k3="1" operator="arithmetic"/><feColorMatrix values="0 0 0 0 1 0 0 0 0 1 0 0 0 0 1 0 0 0 1 0"/><feBlend in2="shape" result="effect1_innerShadow_27_271"/></filter><linearGradient id="f" x1="70.523" x2="205.707" y1="73.445" y2="-27.647" gradientUnits="userSpaceOnUse"><stop stop-color="#fff"/><stop offset="1" stop-color="#fff" stop-opacity=".58"/></linearGradient></defs></svg>