<svg xmlns="http://www.w3.org/2000/svg" width="108" height="108" fill="none"><path fill="url(#a)" fill-rule="evenodd" d="M81 80.856c11.39-1.307 20.25-11.321 20.25-23.481 0-13.048-10.2-23.625-22.784-23.625-.485 0-.967.016-1.445.047C72.786 18.19 58.958 6.75 42.553 6.75 22.78 6.75 6.75 23.371 6.75 43.875c0 17.354 11.483 31.927 27 35.995v-7.047C22.115 68.948 13.5 57.597 13.5 43.875 13.5 26.867 26.736 13.5 42.553 13.5c13.418 0 24.978 9.619 28.176 22.92l.01-.004c.452 1.846.74 3.759.848 5.723a15.324 15.324 0 0 1 6.88-1.639c8.626 0 16.033 7.322 16.033 16.875 0 8.602-6.006 15.395-13.5 16.662v6.819ZM45.57 94.507c.817 0 1.688-.709 1.687-1.843 0-.62-.213-1.788-.873-3.507a29.69 29.69 0 0 0-.908-2.103c-1.01 2.194-1.596 4.164-1.595 5.61 0 1.134.871 1.843 1.688 1.843Zm-4.083-14.326c2.06-3.466 4.076-5.931 4.076-5.931s1.923 2.55 3.933 6c2.202 3.78 4.51 8.64 4.511 12.414.002 4.746-3.775 8.593-8.435 8.593s-8.44-3.847-8.441-8.593c-.002-4.141 2.201-8.86 4.356-12.483Zm26.02 2.358c0 1.134-.87 1.843-1.688 1.843-.817 0-1.688-.709-1.688-1.843 0-1.446.586-3.416 1.595-5.61.338.711.645 1.417.908 2.103.66 1.72.873 2.886.873 3.507Zm-1.694-18.414s-2.016 2.465-4.076 5.93c-2.155 3.624-4.358 8.343-4.356 12.484.001 4.746 3.78 8.593 8.44 8.593s8.438-3.847 8.436-8.593c-.001-3.774-2.309-8.634-4.51-12.414-2.011-3.45-3.934-6-3.934-6Z" clip-rule="evenodd"/><defs><linearGradient id="a" x1="54" x2="54" y1="6.75" y2="101.257" gradientUnits="userSpaceOnUse"><stop stop-color="#95B6F6"/><stop offset="1" stop-color="#5193DE"/></linearGradient></defs></svg>