<svg width="108" height="108" viewBox="0 0 108 108" fill="none" xmlns="http://www.w3.org/2000/svg">
<path fill-rule="evenodd" clip-rule="evenodd" d="M81 80.8555C92.3907 79.5487 101.25 69.5346 101.25 57.375C101.25 44.3273 91.0494 33.75 78.4664 33.75C77.9809 33.75 77.4989 33.7658 77.021 33.7968C72.7856 18.1905 58.9577 6.75 42.553 6.75C22.7795 6.75 6.75 23.3714 6.75 43.875C6.75 61.2289 18.233 75.8018 33.75 79.8695V72.8229C22.115 68.9484 13.5 57.5969 13.5 43.875C13.5 26.8666 26.7361 13.5 42.553 13.5C55.9705 13.5 67.5309 23.1189 70.7294 36.4201L70.7396 36.416C71.1913 38.2615 71.4793 40.1749 71.5866 42.1385C73.6895 41.0845 76.0293 40.5 78.4664 40.5C87.0929 40.5 94.5 47.8224 94.5 57.375C94.5 65.9767 88.4941 72.7701 81 74.0373V80.8555ZM45.5695 94.5072C46.3867 94.5072 47.2575 93.7982 47.2571 92.6642C47.257 92.0431 47.0438 90.8761 46.3844 89.1566C46.1215 88.4711 45.8143 87.7654 45.476 87.0539C44.4666 89.2475 43.8802 91.2184 43.8807 92.6642C43.881 93.7982 44.7522 94.5072 45.5695 94.5072ZM41.4866 80.1807C43.5472 76.7146 45.5632 74.25 45.5632 74.25C45.5632 74.25 47.4857 76.7996 49.4961 80.25C51.6983 84.0297 54.006 88.8904 54.0071 92.6642C54.0086 97.41 50.2318 101.257 45.5715 101.257C40.9112 101.257 37.1321 97.41 37.1307 92.6642C37.1294 88.5228 39.3323 83.8044 41.4866 80.1807ZM67.5071 82.5392C67.5075 83.6732 66.6367 84.3822 65.8195 84.3822C65.0022 84.3822 64.131 83.6732 64.1307 82.5392C64.1302 81.0934 64.7166 79.1225 65.726 76.9289C66.0643 77.6404 66.3715 78.3461 66.6344 79.0316C67.2938 80.7511 67.507 81.9181 67.5071 82.5392ZM65.8132 64.125C65.8132 64.125 63.7972 66.5896 61.7366 70.0557C59.5823 73.6794 57.3794 78.3978 57.3807 82.5392C57.3821 87.285 61.1612 91.1322 65.8215 91.1322C70.4818 91.1322 74.2586 87.285 74.2571 82.5392C74.256 78.7654 71.9483 73.9047 69.7461 70.125C67.7357 66.6746 65.8132 64.125 65.8132 64.125Z" fill="url(#paint0_linear_48_507)"/>
<defs>
<linearGradient id="paint0_linear_48_507" x1="54" y1="6.75" x2="54" y2="101.257" gradientUnits="userSpaceOnUse">
<stop stop-color="#95B6F6"/>
<stop offset="1" stop-color="#5193DE"/>
</linearGradient>
</defs>
</svg>
