<svg xmlns="http://www.w3.org/2000/svg" width="50" height="50" fill="none"><path fill="#000" fill-rule="evenodd" d="M35.938 31.818c0 4.402-4.396 8.807-10.938 8.807-6.542 0-10.938-4.405-10.938-8.807 0-4.566 2.97-10.252 6.46-15.202a75.383 75.383 0 0 1 4.4-5.626 93.031 93.031 0 0 1 4.53 6.05c1.7 2.486 3.355 5.21 4.574 7.86 1.241 2.7 1.911 5.07 1.911 6.918Zm-25 0c0-8.495 8.017-18.738 11.944-23.247C24.157 7.11 25 6.25 25 6.25s.808.893 2.037 2.39c3.897 4.746 12.026 15.558 12.026 23.178 0 6.59-6.297 11.932-14.063 11.932-7.767 0-14.063-5.342-14.063-11.932Zm7.028-5.256h3.362c-.633 1.444-1.015 2.813-1.015 3.978 0 1.788 1.749 3.835 4.687 3.835V37.5c-4.315 0-7.813-3.116-7.813-6.96 0-1.283.299-2.634.78-3.977Z" clip-rule="evenodd"/></svg>