<svg xmlns="http://www.w3.org/2000/svg" width="108" height="108" fill="none"><path fill="url(#a)" fill-rule="evenodd" d="M47.231 54.004 29.973 64.098l-13.68-6.28-2.808 6.178 9.336 4.285-5.135 3.004 3.342 5.864 5.134-3.003-1.004 10.332 6.685.625 1.472-15.14L50.58 59.864v20.302l-12.217 8.867 3.964 5.463 8.253-5.99V94.5h6.75v-5.994l8.253 5.99 3.964-5.463-12.217-8.868V59.911l17.304 10.121 1.472 15.142 6.685-.625-1.004-10.333 5.135 3.003 3.342-5.864-5.134-3.003 9.334-4.285-2.808-6.177-13.679 6.278L60.6 54.004l17.325-10.133 13.769 6.32 2.808-6.177-9.425-4.326 5.195-3.039-3.342-5.864-5.096 2.98.995-10.233-6.685-.625-1.462 15.042L57.33 48.097V27.903l12.296-8.924-3.965-5.463-8.331 6.046V13.5h-6.75v5.948l-8.174-5.932-3.965 5.463 12.139 8.81v20.355L33.368 38.076l-1.482-15.24-6.684.626 1.013 10.43-5.194-3.037-3.342 5.864 5.096 2.98-9.246 4.245 2.808 6.177 13.59-6.238L47.23 54.004Z" clip-rule="evenodd"/><defs><linearGradient id="a" x1="53.993" x2="53.993" y1="13.5" y2="94.5" gradientUnits="userSpaceOnUse"><stop stop-color="#B2D4F7"/><stop offset="1" stop-color="#D9E2F3"/></linearGradient></defs></svg>