<svg xmlns="http://www.w3.org/2000/svg" width="178" height="176" fill="none"><g filter="url(#a)"><rect width="23.151" height="21.801" x="77.849" y="77" fill="#FFEF9A" rx="10.9"/></g><g filter="url(#b)"><path fill="url(#c)" d="M99.457 89.637c0 5.54-4.492 10.032-10.032 10.032-5.541 0-10.033-4.492-10.033-10.032s4.492-10.032 10.032-10.032c5.541 0 10.033 4.491 10.033 10.032Z"/></g><g filter="url(#d)"><path fill="url(#e)" d="M95.147 94.81c.07-.396.106-.803.106-1.219 0-3.889-3.181-7.041-7.106-7.041a7.11 7.11 0 0 0-6.52 4.234 5.05 5.05 0 0 0-3.295-1.217 5.08 5.08 0 0 0-5.055 5.55A4.02 4.02 0 0 0 71 98.732c0 2.222 1.818 4.024 4.061 4.024h19.177c2.243 0 4.061-1.802 4.061-4.024 0-1.912-1.347-3.513-3.152-3.922Z"/></g><defs><filter id="a" width="177.151" height="175.801" x=".849" y="0" color-interpolation-filters="sRGB" filterUnits="userSpaceOnUse"><feFlood flood-opacity="0" result="BackgroundImageFix"/><feBlend in="SourceGraphic" in2="BackgroundImageFix" result="shape"/><feGaussianBlur result="effect1_foregroundBlur_27_279" stdDeviation="38.5"/></filter><filter id="b" width="20.064" height="25.064" x="79.392" y="79.605" color-interpolation-filters="sRGB" filterUnits="userSpaceOnUse"><feFlood flood-opacity="0" result="BackgroundImageFix"/><feBlend in="SourceGraphic" in2="BackgroundImageFix" result="shape"/><feColorMatrix in="SourceAlpha" result="hardAlpha" values="0 0 0 0 0 0 0 0 0 0 0 0 0 0 0 0 0 0 127 0"/><feOffset dy="5"/><feGaussianBlur stdDeviation="9"/><feComposite in2="hardAlpha" k2="-1" k3="1" operator="arithmetic"/><feColorMatrix values="0 0 0 0 1 0 0 0 0 1 0 0 0 0 1 0 0 0 0.81 0"/><feBlend in2="shape" result="effect1_innerShadow_27_279"/></filter><filter id="d" width="27.299" height="26.206" x="71" y="86.55" color-interpolation-filters="sRGB" filterUnits="userSpaceOnUse"><feFlood flood-opacity="0" result="BackgroundImageFix"/><feBlend in="SourceGraphic" in2="BackgroundImageFix" result="shape"/><feColorMatrix in="SourceAlpha" result="hardAlpha" values="0 0 0 0 0 0 0 0 0 0 0 0 0 0 0 0 0 0 127 0"/><feOffset dy="11"/><feGaussianBlur stdDeviation="5"/><feComposite in2="hardAlpha" k2="-1" k3="1" operator="arithmetic"/><feColorMatrix values="0 0 0 0 1 0 0 0 0 1 0 0 0 0 1 0 0 0 1 0"/><feBlend in2="shape" result="effect1_innerShadow_27_279"/></filter><linearGradient id="c" x1="87.901" x2="96.155" y1="95.097" y2="80.62" gradientUnits="userSpaceOnUse"><stop stop-color="#F90"/><stop offset="1" stop-color="#FFEE94"/></linearGradient><linearGradient id="e" x1="72.736" x2="100.277" y1="101.309" y2="80.714" gradientUnits="userSpaceOnUse"><stop stop-color="#fff"/><stop offset="1" stop-color="#fff" stop-opacity=".58"/></linearGradient></defs></svg>