<svg xmlns="http://www.w3.org/2000/svg" width="108" height="108" fill="none"><path fill="url(#a)" fill-rule="evenodd" d="M50.625 16.875V6.75h6.75v10.125h-6.75Zm19.015 3.287 5.062-8.769 5.846 3.375-5.063 8.769-5.845-3.375ZM54 77.625c13.048 0 23.625-10.577 23.625-23.625S67.048 30.375 54 30.375 30.375 40.952 30.375 54 40.952 77.625 54 77.625Zm0 6.75c16.776 0 30.375-13.6 30.375-30.375 0-16.776-13.6-30.375-30.375-30.375-16.776 0-30.375 13.6-30.375 30.375 0 16.776 13.6 30.375 30.375 30.375Zm37.125-33.75h10.125v6.75H91.125v-6.75Zm2.107-23.173-8.768 5.063 3.375 5.845 8.768-5.062-3.375-5.846Zm-65.78-12.684 5.063 8.769 5.845-3.375-5.062-8.769-5.846 3.375Zm-7.29 23.592-8.77-5.062 3.376-5.846 8.768 5.063-3.375 5.845Zm30.463 52.765v10.125h6.75V91.125h-6.75Zm-33.75-40.5H6.75v6.75h10.125v-6.75Zm-5.482 24.077 8.768-5.062 3.375 5.845-8.768 5.063-3.375-5.846Zm21.122 9.762-5.063 8.769 5.846 3.374 5.063-8.768-5.846-3.375Zm42.187 12.144-5.062-8.769 5.845-3.375 5.063 8.769-5.846 3.374Zm9.762-21.123 8.768 5.063 3.375-5.846-8.768-5.062-3.375 5.845Z" clip-rule="evenodd"/><defs><linearGradient id="a" x1="54" x2="54" y1="6.75" y2="101.25" gradientUnits="userSpaceOnUse"><stop stop-color="#EFC977"/><stop offset="1" stop-color="#E07256"/></linearGradient></defs></svg>