<svg xmlns="http://www.w3.org/2000/svg" width="108" height="107" fill="none"><path fill="url(#a)" fill-rule="evenodd" d="m58.505 55.719 6.42 4.276L53.49 77.144h19.625l-21.134 29.259-6.25-4.518 12.295-17.027H39.08L58.505 55.72Z" clip-rule="evenodd"/><path fill="url(#b)" fill-rule="evenodd" d="M30.857 83.567C13.125 78.915 0 62.263 0 42.429 0 18.995 18.321 0 40.92 0c18.745 0 34.549 13.076 39.388 30.91a25.42 25.42 0 0 1 1.652-.053c14.384 0 26.04 12.09 26.04 27s-11.656 27-26.04 27c-.322 0-.643-.004-.96-.018v-7.696h1.17c9.767-.116 18.116-8.447 18.116-19.286 0-10.915-8.465-19.286-18.326-19.286-2.781 0-5.46.67-7.862 1.871a35.442 35.442 0 0 0-.969-6.54l-.008.009C69.464 18.705 56.25 7.714 40.92 7.714c-18.08 0-33.206 15.277-33.206 34.715 0 15.683 9.844 28.656 23.143 33.084v8.054Z" clip-rule="evenodd"/><defs><linearGradient id="a" x1="56.097" x2="56.097" y1="55.718" y2="106.401" gradientUnits="userSpaceOnUse"><stop stop-color="#F5BD52"/><stop offset="1" stop-color="#F5DA79"/></linearGradient><linearGradient id="b" x1="54" x2="54" y1="0" y2="84.857" gradientUnits="userSpaceOnUse"><stop stop-color="#95B6F6"/><stop offset="1" stop-color="#5193DE"/></linearGradient></defs></svg>