<?xml version="1.0" encoding="UTF-8"?>
<svg xmlns="http://www.w3.org/2000/svg" xmlns:xlink="http://www.w3.org/1999/xlink" width="45px" height="45px" viewBox="0 0 45 45" version="1.1">
<g id="surface1">
<path style=" stroke:none;fill-rule:nonzero;fill:rgb(0%,0%,0%);fill-opacity:1;" d="M 26.988281 31.492188 L 26.988281 4.5 C 26.988281 1.953125 25.035156 0 22.488281 0 C 19.941406 0 17.988281 2.101562 17.988281 4.5 L 17.988281 31.484375 C 16.183594 32.832031 14.992188 35.082031 14.992188 37.480469 C 14.992188 41.675781 18.292969 44.976562 22.488281 44.976562 C 26.683594 44.976562 29.984375 41.675781 29.984375 37.480469 C 29.984375 35.082031 28.785156 32.839844 26.988281 31.492188 Z M 22.488281 43.488281 C 19.1875 43.488281 16.492188 40.789062 16.492188 37.488281 C 16.492188 35.238281 17.691406 33.296875 19.484375 32.246094 L 19.484375 4.5 C 19.484375 2.855469 20.835938 1.503906 22.480469 1.503906 C 24.125 1.503906 25.476562 2.855469 25.476562 4.5 L 25.476562 32.238281 C 27.277344 33.289062 28.46875 35.230469 28.46875 37.480469 C 28.484375 40.78125 25.789062 43.488281 22.488281 43.488281 Z M 22.488281 43.488281 "/>
<path style=" stroke:none;fill-rule:nonzero;fill:rgb(0%,0%,0%);fill-opacity:1;" d="M 23.984375 33.289062 L 23.984375 25.496094 C 23.984375 24.59375 23.390625 23.996094 22.488281 23.996094 C 21.585938 23.996094 20.992188 24.59375 20.992188 25.496094 L 20.992188 33.289062 C 19.1875 33.890625 17.996094 35.539062 17.996094 37.480469 C 17.996094 40.03125 19.949219 41.980469 22.496094 41.980469 C 25.042969 41.980469 26.996094 40.03125 26.996094 37.480469 C 26.988281 35.539062 25.789062 33.890625 23.984375 33.289062 Z M 23.984375 33.289062 "/>
</g>
</svg>
