<svg xmlns="http://www.w3.org/2000/svg" width="50" height="50" fill="none"><path fill="#000" fill-rule="evenodd" d="M21.875 17.179v-.01H13.03l8.485-3.065-.001-.003a1.56 1.56 0 0 1 .564-.037 1.561 1.561 0 0 1 1.134.71v.001a1.565 1.565 0 0 1 .168 1.328 1.563 1.563 0 0 1-.922.97v.001l-.062.022a1.562 1.562 0 0 1-.52.083ZM6.25 16.296v3.999h15.593c.592.006 1.181-.1 1.735-.313h.001a4.678 4.678 0 0 0 1.707-1.142 4.68 4.68 0 0 0 1.25-3.808v-.002a4.68 4.68 0 0 0-2.157-3.379 4.681 4.681 0 0 0-1.938-.681 4.678 4.678 0 0 0-1.988.195l-.048.016-.006.002L6.25 16.297Zm0 13.388v3.21l20.634 7.341v.001a5.465 5.465 0 0 0 7.326-6.415 5.468 5.468 0 0 0-5.266-4.132v-.005H6.25Zm22.672 3.126H15.336L28.1 37.35v.004a2.34 2.34 0 1 0 .824-4.538h-.002v-.006Zm7.044-15.235-.002.001-1.536-2.721-.002-.003.003-.002a6.248 6.248 0 0 1 9.195 6.692 6.252 6.252 0 0 1-6.133 5.005H6.25V23.42h31.246v-.003a3.122 3.122 0 1 0-1.53-5.843Z" clip-rule="evenodd"/></svg>